<svg xmlns="http://www.w3.org/2000/svg" width="288" height="512" viewBox="0 0 288 512"><title>map-pin-light2</title><g id="Layer_2" data-name="Layer 2"><g id="Layer_1-2" data-name="Layer 1"><path d="M144,0A144,144,0,0,0,0,144c0,74.1,56.1,134.3,128,142.4V492.8l11,16.5a6,6,0,0,0,10,0l11-16.5V286.4c71.9-8,128-68.3,128-142.4A144,144,0,0,0,144,0Zm0,256A112,112,0,1,1,256,144,112.07,112.07,0,0,1,144,256Zm0-192a80.11,80.11,0,0,0-80,80,16,16,0,0,0,32,0,48,48,0,0,1,48-48,16,16,0,0,0,0-32Z"/></g></g></svg>