<?xml version="1.0" encoding="utf-8"?>
<!-- Generator: Adobe Illustrator 23.0.3, SVG Export Plug-In . SVG Version: 6.00 Build 0)  -->
<svg version="1.1" id="Layer_1" focusable="false" xmlns="http://www.w3.org/2000/svg" xmlns:xlink="http://www.w3.org/1999/xlink"
	 x="0px" y="0px" viewBox="0 0 288 512" style="enable-background:new 0 0 288 512;" xml:space="preserve">
<style type="text/css">
	.st0{fill:#FFFFFF;}
</style>
<path class="st0" d="M144,256c-61.8,0-112-50.2-112-112S82.2,32,144,32s112,50.2,112,112S205.8,256,144,256z M144,64
	c-44.1,0-80,35.9-80,80c0,8.8,7.2,16,16,16s16-7.2,16-16c0-26.5,21.5-48,48-48c8.8,0,16-7.2,16-16S152.8,64,144,64z"/>
<path d="M144,0C64.5,0,0,64.5,0,144c0,74.1,56.1,134.3,128,142.4v206.4l11,16.5c2.4,3.6,7.6,3.6,10,0l11-16.5V286.4
	c71.9-8,128-68.3,128-142.4C288,64.5,223.5,0,144,0z M144,256c-61.8,0-112-50.2-112-112S82.2,32,144,32s112,50.2,112,112
	S205.8,256,144,256z M144,64c-44.1,0-80,35.9-80,80c0,8.8,7.2,16,16,16s16-7.2,16-16c0-26.5,21.5-48,48-48c8.8,0,16-7.2,16-16
	S152.8,64,144,64z"/>
</svg>
